Coordinates
version=1
nRows=14
nColumns=46
inDegrees=yes

Units are S.I. units (second, meters, Newtons, ...)
Angles are in degrees.

endheader
time	pelvis_tilt	pelvis_list	pelvis_rotation	pelvis_tx	pelvis_ty	pelvis_tz	bb_angle	bb_tx	bb_ty	bb_tz	hip_flexion_r	hip_adduction_r	hip_rotation_r	knee_angle_r	knee_angle_r_beta	ankle_angle_r	subtalar_angle_r	mtp_angle_r	crank_angle_r	hip_flexion_l	hip_adduction_l	hip_rotation_l	knee_angle_l	knee_angle_l_beta	ankle_angle_l	subtalar_angle_l	mtp_angle_l	crank_angle_l	lumbar_extension	lumbar_bending	lumbar_rotation	arm_flex_r	arm_add_r	arm_rot_r	elbow_flex_r	pro_sup_r	wrist_flex_r	wrist_dev_r	arm_flex_l	arm_add_l	arm_rot_l	elbow_flex_l	pro_sup_l	wrist_flex_l	wrist_dev_l
      2.50000000	    -16.72449365	      1.63904055	     -1.98046297	      0.28891865	      1.17391484	     -0.23918545	      0.00000000	      0.50000000	      0.00000000	      0.25000000	     44.69174917	     -1.35352325	      7.78582088	     51.70267507	      0.90238191	     18.29849857	     -7.15117503	      0.00000000	      0.00000000	     44.33675115	     -2.66393687	      1.05801102	     88.97746122	      1.55294966	      8.93861961	    -10.85936545	      0.00000000	      0.00000000	    -57.37185119	      4.61391933	      1.79861404	     52.57306034	    -16.37007749	     26.78393137	     83.11318916	     51.75611503	      0.00000000	      0.00000000	     48.24261247	    -22.14742884	     22.13521336	     74.15853796	     53.35311462	      0.00000000	      0.00000000
      2.50500000	    -16.60689628	      2.16779860	     -1.87484339	      0.28976557	      1.17128442	     -0.23924924	      0.00000000	      0.50000000	      0.00000000	      0.25000000	     43.57396356	     -1.89214426	      8.18298378	     50.37431385	      0.87919764	     18.04440855	     -7.02440791	      0.00000000	      0.00000000	     45.25205764	     -2.28073563	      0.82701936	     90.80272674	      1.58480655	      9.28022317	    -10.84114308	      0.00000000	      0.00000000	    -57.01256856	      4.12235987	      1.39507852	     52.11592065	    -16.54284429	     26.77435653	     83.05909759	     51.75165555	      0.00000000	      0.00000000	     48.15261374	    -22.04291340	     22.31114842	     74.11051109	     53.37624145	      0.00000000	      0.00000000
      2.51000000	    -16.70027144	      2.44073777	     -1.71752583	      0.29052862	      1.16819032	     -0.23935975	      0.00000000	      0.50000000	      0.00000000	      0.25000000	     42.67489630	     -2.25216110	      8.26445064	     49.05021175	      0.85608769	     17.51167321	     -7.35512558	      0.00000000	      0.00000000	     46.49750785	     -2.16554728	      0.81838457	     92.79048342	      1.61949945	     10.01697818	     -9.88384254	      0.00000000	      0.00000000	    -56.32519690	      3.85143449	      1.41625803	     51.29920989	    -16.89318333	     26.49351341	     83.04216530	     51.72588602	      0.00000000	      0.00000000	     48.20034380	    -21.79858200	     23.13939592	     73.61339684	     53.44364970	      0.00000000	      0.00000000
      2.51500000	    -16.53704541	      2.94876140	     -1.61019587	      0.29138304	      1.16580131	     -0.23952632	      0.00000000	      0.50000000	      0.00000000	      0.25000000	     41.53808195	     -2.84664994	      8.47494122	     47.81801945	      0.83458188	     17.41312875	     -7.22266362	      0.00000000	      0.00000000	     47.41041445	     -1.88182120	      0.47097373	     94.55824132	      1.65035265	     10.14959477	     -9.88090311	      0.00000000	      0.00000000	    -56.01041609	      3.32365250	      0.97985311	     50.87061840	    -17.08447929	     26.50631811	     82.96591841	     51.72029854	      0.00000000	      0.00000000	     48.12270851	    -21.66283495	     23.31494187	     73.52944115	     53.45859620	      0.00000000	      0.00000000
      2.52000000	    -16.53015690	      3.39181134	     -1.40266303	      0.29233610	      1.16342493	     -0.23983710	      0.00000000	      0.50000000	      0.00000000	      0.25000000	     40.45247698	     -3.44684216	      8.55070535	     46.40444724	      0.80991039	     16.84009929	     -7.14911055	      0.00000000	      0.00000000	     48.50523347	     -1.53057363	      0.34967491	     96.25386123	      1.67994680	     10.31331612	     -9.60798731	      0.00000000	      0.00000000	    -55.47381224	      2.94819790	      0.72371624	     50.10016460	    -17.36841747	     26.53438225	     82.74333630	     51.69653024	      0.00000000	      0.00000000	     48.03226452	    -21.47116481	     23.78245969	     73.15619247	     53.47251296	      0.00000000	      0.00000000
      2.52500000	    -16.53617907	      3.67471063	     -1.19222556	      0.29305255	      1.16108456	     -0.23994751	      0.00000000	      0.50000000	      0.00000000	      0.25000000	     39.39792124	     -3.85831561	      8.59532580	     45.11059246	      0.78732837	     16.40551021	     -7.35095093	      0.00000000	      0.00000000	     49.70764554	     -1.43252701	      0.21441751	     97.94851106	      1.70952402	     10.53063932	     -9.26704737	      0.00000000	      0.00000000	    -54.85699644	      2.44780789	      2.03872073	     48.43828956	    -19.13526671	     25.10909772	     83.75103255	     51.73125050	      0.00000000	      0.00000000	     49.98063918	    -19.81529455	     26.92735565	     69.84850269	     53.53790728	      0.00000000	      0.00000000
      2.53000000	    -16.51461901	      4.13587387	     -1.04942598	      0.29376703	      1.15909216	     -0.24009838	      0.00000000	      0.50000000	      0.00000000	      0.25000000	     38.32840377	     -4.44984768	      8.68592684	     43.80115254	      0.76447433	     16.09032371	     -7.18164625	      0.00000000	      0.00000000	     50.83747075	     -1.18320074	     -0.07749920	     99.50111015	      1.73662198	     10.43235244	     -9.20723270	      0.00000000	      0.00000000	    -54.47091712	      1.96369061	      1.62319208	     48.01161028	    -19.28184619	     25.10886169	     83.63840212	     51.70646547	      0.00000000	      0.00000000	     49.90011539	    -19.73243680	     26.99758866	     69.79622585	     53.53061973	      0.00000000	      0.00000000
      2.53500000	    -16.64441265	      4.30112127	     -0.79396135	      0.29443677	      1.15698230	     -0.24031532	      0.00000000	      0.50000000	      0.00000000	      0.25000000	     37.32928231	     -4.79517923	      8.53857567	     42.42158739	      0.74039637	     15.47276378	     -7.34593991	      0.00000000	      0.00000000	     52.21299625	     -1.09054807	     -0.05536299	    101.07862999	      1.76415490	     10.32365644	     -9.00196569	      0.00000000	      0.00000000	    -53.80011761	      1.75773673	      1.55372647	     47.43602117	    -19.51194162	     24.93820746	     83.20589223	     51.61787402	      0.00000000	      0.00000000	     50.01975416	    -19.39138959	     27.57469251	     68.93319092	     53.51048167	      0.00000000	      0.00000000
      2.54000000	    -16.66830303	      4.64401334	     -0.57763390	      0.29516677	      1.15548443	     -0.24047178	      0.00000000	      0.50000000	      0.00000000	      0.25000000	     36.17893412	     -5.30879740	      8.49507215	     40.97444051	      0.71513890	     14.93840419	     -7.43846118	      0.00000000	      0.00000000	     53.39931804	     -0.86296060	     -0.20985532	    102.51394779	      1.78920592	      9.72712777	     -9.55159939	      0.00000000	      0.00000000	    -53.28676312	      1.29868012	      1.72141013	     46.56376176	    -20.09787319	     24.33569803	     83.14304984	     51.55504660	      0.00000000	      0.00000000	     50.72159048	    -18.71017860	     28.78949958	     67.34603419	     53.53962194	      0.00000000	      0.00000000
      2.54500000	    -16.76223000	      5.01699068	     -0.44340841	      0.29595821	      1.15414512	     -0.24059000	      0.00000000	      0.50000000	      0.00000000	      0.25000000	     35.13613611	     -5.84795557	      8.42888364	     39.58748015	      0.69093187	     14.52560602	     -7.09876901	      0.00000000	      0.00000000	     54.64773651	     -0.68805416	     -0.47624987	    103.79584675	      1.81157928	      9.57308504	     -9.42491843	      0.00000000	      0.00000000	    -52.84819821	      0.80251515	      1.34074035	     46.12523044	    -20.24475230	     24.28190646	     83.00888321	     51.51091770	      0.00000000	      0.00000000	     50.57412849	    -18.58441536	     28.93084351	     67.29865539	     53.52657776	      0.00000000	      0.00000000
      2.55000000	    -16.87248570	      5.19011083	     -0.20641222	      0.29651298	      1.15297640	     -0.24062539	      0.00000000	      0.50000000	      0.00000000	      0.25000000	     34.04080393	     -6.20511857	      8.21618527	     38.14087221	      0.66568380	     13.80720912	     -7.18588475	      0.00000000	      0.00000000	     55.98368152	     -0.60628723	     -0.49642499	    105.05921279	      1.83362917	      9.35679798	     -9.29394127	      0.00000000	      0.00000000	    -52.26331416	      0.63089319	      1.53303287	     45.36137518	    -20.49286811	     23.47461625	     82.65930707	     51.38337618	      0.00000000	      0.00000000	     51.11931706	    -18.06188596	     30.22070490	     65.70858364	     53.54870877	      0.00000000	      0.00000000
      2.55500000	    -17.00248319	      5.53893155	     -0.06246360	      0.29708300	      1.15212601	     -0.24069754	      0.00000000	      0.50000000	      0.00000000	      0.25000000	     33.01670234	     -6.72210385	      8.09762595	     36.76860088	      0.64173315	     13.33934369	     -6.71727799	      0.00000000	      0.00000000	     57.31649089	     -0.43928813	     -0.78903196	    106.12191348	      1.85217680	      9.29305044	     -9.12670341	      0.00000000	      0.00000000	    -51.84228657	      0.12958103	      1.12620310	     45.00437848	    -20.69739523	     23.36795632	     82.57045224	     51.35143927	      0.00000000	      0.00000000	     51.10271897	    -18.02080673	     30.26409275	     65.66767364	     53.53691807	      0.00000000	      0.00000000
      2.56000000	    -17.11716680	      5.74050136	      0.24981528	      0.29773377	      1.15163530	     -0.24111138	      0.00000000	      0.50000000	      0.00000000	      0.25000000	     31.88102361	     -7.22521908	      7.65542902	     35.28709056	      0.61587591	     12.63254376	     -6.33867656	      0.00000000	      0.00000000	     58.55399949	     -0.05667639	     -0.74781049	    107.10202183	      1.86928292	      8.88347803	     -9.66991914	      0.00000000	      0.00000000	    -51.37183138	     -0.25056594	      1.94682056	     43.31403725	    -21.66590340	     21.31911583	     83.28676244	     51.33281136	      0.00000000	      0.00000000	     52.20958723	    -16.56621704	     32.01080048	     63.39683723	     53.68678543	      0.00000000	      0.00000000
      2.56500000	    -17.28800310	      6.04745056	      0.39783986	      0.29831006	      1.15137665	     -0.24119347	      0.00000000	      0.50000000	      0.00000000	      0.25000000	     30.89869785	     -7.72953938	      7.39285835	     33.91613193	      0.59194817	     11.93504449	     -5.87635320	      0.00000000	      0.00000000	     59.81964408	      0.07534868	     -1.04653125	    107.95708554	      1.88420659	      8.93292698	     -9.60638570	      0.00000000	      0.00000000	    -50.96772096	     -0.71786065	      1.58152805	     42.93189193	    -21.82287081	     21.17772165	     83.03507547	     51.27484426	      0.00000000	      0.00000000	     52.15770310	    -16.50373581	     32.05226422	     63.33028315	     53.68040855	      0.00000000	      0.00000000
